<svg xmlns="http://www.w3.org/2000/svg" fill-rule="evenodd" viewBox="0 0 100 100">
    <path d="M88.5 36V24a5.51 5.51 0 0 0-5.5-5.5H18a5.51 5.51 0 0 0-5.5 5.5v12a5.48 5.48 0 0 0 1.74 4 5.48 5.48 0 0 0-1.74 4v12a5.48 5.48 0 0 0 1.74 4 5.48 5.48 0 0 0-1.74 4v12a5.51 5.51 0 0 0 5.5 5.5h65a5.51 5.51 0 0 0 5.5-5.5V64a5.48 5.48 0 0 0-1.74-4 5.48 5.48 0 0 0 1.74-4V44a5.48 5.48 0 0 0-1.74-4 5.48 5.48 0 0 0 1.74-4Zm-3 28v12a2.5 2.5 0 0 1-2.5 2.5H18a2.5 2.5 0 0 1-2.5-2.5V64a2.5 2.5 0 0 1 2.5-2.5h65a2.5 2.5 0 0 1 2.5 2.5Zm0-20v12a2.5 2.5 0 0 1-2.5 2.5H18a2.5 2.5 0 0 1-2.5-2.5V44a2.5 2.5 0 0 1 2.5-2.5h65a2.5 2.5 0 0 1 2.5 2.5ZM18 38.5a2.5 2.5 0 0 1-2.5-2.5V24a2.5 2.5 0 0 1 2.5-2.5h65a2.5 2.5 0 0 1 2.5 2.5v12a2.5 2.5 0 0 1-2.5 2.5Z"/>
    <path d="M25 27a3 3 0 1 0 0 6 3 3 0 1 0 0-6zm0 20a3 3 0 1 0 0 6 3 3 0 1 0 0-6zm0 20a3 3 0 1 0 0 6 3 3 0 1 0 0-6zm54-38.5H59a1.5 1.5 0 0 0 0 3h20a1.5 1.5 0 0 0 0-3Zm-20 23h20a1.5 1.5 0 0 0 0-3H59a1.5 1.5 0 0 0 0 3Zm0 20h20a1.5 1.5 0 0 0 0-3H59a1.5 1.5 0 0 0 0 3Z"/>
</svg>
